<?xml version="1.0" encoding="UTF-8"?><svg id="a" xmlns="http://www.w3.org/2000/svg" viewBox="0 0 46.6 49"><defs><style>.b{fill:#fff;}</style></defs><path class="b" d="M0,24.5c0-6.6,0-13.1,0-19.7C0,2,2,0,4.9,0,17.2,0,29.4,0,41.7,0c2.9,0,4.9,2,4.9,4.9,0,12.2,0,24.4,0,36.6,0,.9,0,1.9,0,2.8,0,2.6-2.1,4.7-4.7,4.7-9.6,0-19.3,0-28.9,0-2.8,0-5.6,0-8.4,0C2,48.9,0,46.9,0,44.3c0-6.6,0-13.2,0-19.8H0Zm8.4,11.4c.1,.1,.2,.2,.2,.2,.3,.2,.6,.4,1,.5,3.3,1.6,6.7,2.4,10.3,2.2,3.1-.2,6.1-.9,8.9-2.6,3.6-2.2,6.1-5.3,7.8-9.1,1.1-2.7,1.8-5.5,1.7-8.4,0-.2,.1-.4,.3-.5,.6-.5,1.2-1,1.8-1.5,.5-.4,.8-.9,1.3-1.4h-.1l-3.6,.8c.7-.6,1.3-1.1,1.8-1.7,.5-.6,.9-1.2,1.1-2.1-.3,.2-.6,.3-.8,.4-1,.4-1.9,.7-2.9,1.1-.2,0-.6,0-.8-.2-1.1-.9-2.3-1.6-3.8-1.7-5.2-.6-7.8,3.1-7.8,6.7,0,.5,0,1.1,.1,1.6-5.7-.4-10.4-2.8-14.1-7.3-1.7,3.7-1,6.6,2,9.1-1.1,.1-2-.2-2.9-.7,0,3.5,1.8,5.7,5.1,6.7v.2l-2.7,.2c.4,1.4,1.2,2.4,2.3,3.2,1.1,.9,2.4,1.1,3.8,1.5-2.9,2.2-6.2,2.8-9.8,2.8Z"/></svg>