<svg id="Layer_1" data-name="Layer 1" xmlns="http://www.w3.org/2000/svg" viewBox="0 0 359.4 268.5"><defs><style>.cls-1{fill:#a4d1ed;}.cls-2{fill:#97c1db;}.cls-3{fill:#1f505a;}</style></defs><path class="cls-1" d="M166.4,110.6" transform="translate(-0.6 0)"/><path class="cls-2" d="M311.4,268.5" transform="translate(-0.6 0)"/><path class="cls-2" d="M333.6,205H322V178.7c0-19.1-15.2-35.8-32.8-36.3h-8.7V127.9a34.8,34.8,0,0,0-34.8-34.7h-8.6l-.3-1.5a32.5,32.5,0,0,0-31.9-26.2H144.8A33.7,33.7,0,0,0,111,99.2v19h15.2v-19a18.5,18.5,0,0,1,18.6-18.5h60.1a17.2,17.2,0,0,1,17.3,17,.4.4,0,0,1,.1.3v23.5c-.1,15.8-.1,23.7,4.7,29.5s14.1,6.6,27.1,6.6h34.3c9.5,0,18.4,10.2,18.4,21.1v89.8H322V220.2h11.6a11.2,11.2,0,0,1,11.2,11.2v37.1H360V231.4A26.4,26.4,0,0,0,333.6,205Zm-68.3-62.6H246.5a9.2,9.2,0,0,1-8.9-8.8c-.2-3.5-.2-7.8-.2-12V108.3h8.3a19.6,19.6,0,0,1,19.6,19.6Z" transform="translate(-0.6 0)"/><path class="cls-3" d="M169.7,188.8V133a4,4,0,0,0-4-4H163a4,4,0,0,0-4.1,4v39a1.1,1.1,0,0,1-.9,1h0a1.3,1.3,0,0,1-.9-.4l-30.6-41.1a5.5,5.5,0,0,0-4.3-2.1h-2a5.4,5.4,0,0,0-5.4,5.3v55.5a4,4,0,0,0,4,4h3a4,4,0,0,0,4.1-4V151.8a1,1,0,0,1,.7-.9h0a.8.8,0,0,1,1,.4l31.1,41.3a3.9,3.9,0,0,0,3.2,1.6h2.5A5.4,5.4,0,0,0,169.7,188.8Z" transform="translate(-0.6 0)"/><path class="cls-3" d="M250.2,260.8V205a4,4,0,0,0-4.1-4h-2.7a4,4,0,0,0-4,4v39a1.1,1.1,0,0,1-1,1h0a1.2,1.2,0,0,1-.8-.4l-30.7-41.1a5.5,5.5,0,0,0-4.3-2.1h-2a5.3,5.3,0,0,0-5.3,5.3v55.5a4,4,0,0,0,4,4h3a4,4,0,0,0,4-4V223.8a1,1,0,0,1,.7-.9h0a.8.8,0,0,1,1,.4l31.1,41.3a4.2,4.2,0,0,0,3.2,1.6h2.5A5.4,5.4,0,0,0,250.2,260.8Z" transform="translate(-0.6 0)"/><path class="cls-3" d="M62.8,128.8h43.6a2.2,2.2,0,0,1,2.2,2.2v5.8a2.2,2.2,0,0,1-2.2,2.2h-34a2.2,2.2,0,0,0-2.2,2.2v11.2a2.2,2.2,0,0,0,2.2,2.3H96.6a2.2,2.2,0,0,1,2.2,2.3v6.2a2.2,2.2,0,0,1-2.3,2.2H72.6a2.2,2.2,0,0,0-2.2,2.3v13.8a2.2,2.2,0,0,0,2.2,2.2h33.8a2.2,2.2,0,0,1,2.2,2.3v6a2.2,2.2,0,0,1-2.2,2.2H62.8a4.1,4.1,0,0,1-4.1-4V132.8A4.1,4.1,0,0,1,62.8,128.8Z" transform="translate(-0.6 0)"/><path class="cls-3" d="M4.6,194.3H50.3a2.2,2.2,0,0,0,2.2-2.3v-6.2a2.2,2.2,0,0,0-2.2-2.3H19.2a1,1,0,0,1-.8-1.6L51,138.4a8.1,8.1,0,0,0,1.5-4.5v-2.8a2.2,2.2,0,0,0-2.3-2.2l-47.4.5a2.2,2.2,0,0,0-2.2,2.2v6.2a2.2,2.2,0,0,0,2.2,2.3H32.9a1.1,1.1,0,0,1,.8,1.8L1.6,183.8a4.8,4.8,0,0,0-1,3.1v3.4A4,4,0,0,0,4.6,194.3Z" transform="translate(-0.6 0)"/><path class="cls-3" d="M11.4,207.4v37.4a15.7,15.7,0,0,0,.8,4.9,7.1,7.1,0,0,0,2.6,3.9,18.9,18.9,0,0,0,12,3.8c6.3,0,6.6-.2,10.5-1.9s3.8-4.8,4.4-7.1a22,22,0,0,0,.4-3.6V207.4a4,4,0,0,1,4-4h2.4a4,4,0,0,1,4,4v38.5s1.5,21.4-25.7,22.6S.6,245.8.6,245.8V207.4a4,4,0,0,1,4-4H7.4A4,4,0,0,1,11.4,207.4Z" transform="translate(-0.6 0)"/><path class="cls-3" d="M96.1,203.4H62.8a4,4,0,0,0-4.1,4v55.4a4.1,4.1,0,0,0,4.1,4.1H95.1s22.9-2.5,22.9-31.4S96.1,203.4,96.1,203.4ZM107,236.8c0,7.9-3.9,17.2-11.6,18.8s-18.7,1.6-23,1.4a2.2,2.2,0,0,1-2.2-2.2L69.7,215a2.2,2.2,0,0,1,2.3-2.2l20.2.2S108.6,215.1,107,236.8Z" transform="translate(-0.6 0)"/><path class="cls-3" d="M156.2,201A33.8,33.8,0,1,0,190,234.8,33.8,33.8,0,0,0,156.2,201Zm0,57.8a23.7,23.7,0,1,1,23.7-23.7A23.7,23.7,0,0,1,156.2,258.8Z" transform="translate(-0.6 0)"/><path class="cls-3" d="M98.4,91.9c-.6,1.6-.4,14.4-.4,14.5h0L10.2,92.6A10.7,10.7,0,0,1,5.7,73.1a10.6,10.6,0,0,1,8.5-1.6Z" transform="translate(-0.6 0)"/><path class="cls-3" d="M113.4,65.1c-4,2.9-7.3,7.5-9.3,10.9L32.9,19.1a10.3,10.3,0,0,1-3.8-7.3,10.9,10.9,0,0,1,2.3-7.9A10.8,10.8,0,0,1,47.2,3Z" transform="translate(-0.6 0)"/><path class="cls-2" d="M284.7,202.6v65.9H269.5V202.6c0-10.8-10-13.1-18.4-13.1H220.4a32.8,32.8,0,0,1-32.7-32.1c0-4.2-.4-15-.7-24.4a15.3,15.3,0,0,0-15.3-14.8h-22A15,15,0,0,1,164.9,103h6.8a30.3,30.3,0,0,1,30.4,28.1,6.1,6.1,0,0,1,.1,1.4l.3,8.7c.2,6.8.4,12.9.4,16a17.7,17.7,0,0,0,17.5,17.2h30.7a52.9,52.9,0,0,1,10.9,1.1h0C276.1,178.9,284.7,188.7,284.7,202.6Z" transform="translate(-0.6 0)"/></svg>